# xmcd
#
# Track frame offsets:
#	150
#	19135
#	33862
#	49672
#	66527
#	79692
#	98447
#	117100
#	131965
#	149712
#
# Disc length: 2248 seconds
#
# Revision: 1
# Processed by: cddbd v1.5.1PL0 Copyright (c) Steve Scherf et al.
# Submitted via: CDex 1.50Beta5
#
DISCID=8908c60a
DTITLE=松原みき - LADY BOUNCE
DYEAR=1900
DGENRE=
TTITLE0=12月のパリ
TTITLE1=魔法じゃないの
TTITLE2=恋にお招ばれ
TTITLE3=モダンに殺気
TTITLE4=Bon Voyage
TTITLE5=恋するセゾン 〜色恋来い〜
TTITLE6=逃避行
TTITLE7=サングラスはもういらない
TTITLE8=終わりゆく夏
TTITLE9=恋はふたたび旅立つ
EXTD=
EXTT0=
EXTT1=
EXTT2=
EXTT3=
EXTT4=
EXTT5=
EXTT6=
EXTT7=
EXTT8=
EXTT9=
PLAYORDER=
